<svg width="55" height="55" viewBox="0 0 55 55" fill="none" xmlns="http://www.w3.org/2000/svg">
<path fill-rule="evenodd" clip-rule="evenodd" d="M35 10H5V50H45V20H50V50V55H45H5H0V50V10V5H5H35V10ZM40 10H45V15H50V10V5H45H40V10Z" fill="white"/>
<rect x="50" y="5" width="5" height="5" fill="white"/>
<rect x="45" width="5" height="5" fill="white"/>
<path d="M19.4827 32.32V27.36H33.3227V32.32H19.4827ZM23.1627 15.52C25.2693 15.52 27.2027 15.88 28.9627 16.6C30.7227 17.2933 32.256 18.2933 33.5627 19.6C34.8693 20.9067 35.8827 22.44 36.6027 24.2C37.3227 25.96 37.6827 27.8933 37.6827 30C37.6827 32.1067 37.3227 34.04 36.6027 35.8C35.8827 37.56 34.8693 39.0933 33.5627 40.4C32.256 41.7067 30.7227 42.72 28.9627 43.44C27.2027 44.1333 25.2693 44.48 23.1627 44.48C20.6827 44.48 18.4427 44.0533 16.4427 43.2C14.4693 42.3467 12.816 41.1067 11.4827 39.48L15.6027 35.64C16.5893 36.76 17.6827 37.6 18.8827 38.16C20.0827 38.6933 21.4027 38.96 22.8427 38.96C24.0427 38.96 25.1493 38.7467 26.1627 38.32C27.2027 37.8667 28.0827 37.2533 28.8027 36.48C29.5493 35.68 30.1093 34.7333 30.4827 33.64C30.8827 32.5467 31.0827 31.3333 31.0827 30C31.0827 28.6667 30.8827 27.4533 30.4827 26.36C30.1093 25.2667 29.5493 24.3333 28.8027 23.56C28.0827 22.76 27.2027 22.1467 26.1627 21.72C25.1493 21.2667 24.0427 21.04 22.8427 21.04C21.4027 21.04 20.0827 21.32 18.8827 21.88C17.6827 22.4133 16.5893 23.24 15.6027 24.36L11.4827 20.52C12.816 18.8933 14.4693 17.6533 16.4427 16.8C18.4427 15.9467 20.6827 15.52 23.1627 15.52Z" fill="white"/>
</svg>
